<svg width="22" height="24" viewBox="0 0 22 24" fill="none" xmlns="http://www.w3.org/2000/svg">
<path d="M9.21199 0.517899C9.44165 0.274898 9.81233 0.27091 10.0483 0.50784C10.2253 0.685693 10.4052 0.87118 10.5026 0.968822L12.1856 2.65397L14.5549 5.04618C15.2555 5.74788 15.9935 6.47821 16.7004 7.20445C17.0754 7.5897 17.0691 8.20272 16.6924 8.58627L9.9965 15.4029C9.62526 15.7808 9.61487 16.3813 9.99045 16.755C10.3119 17.0748 10.6476 17.3976 10.9374 17.6881L13.9872 20.74C14.3522 21.1053 14.3645 21.676 13.994 22.0358C13.8741 22.1522 13.7636 22.2589 13.6864 22.3358L12.4017 23.6364C12.2312 23.809 11.9674 23.8166 11.7934 23.6475C11.138 23.0103 10.5202 22.3361 9.87069 21.6931L6.4186 18.2462C6.03314 17.8606 5.44909 17.2974 4.96342 16.7901C4.61143 16.4225 4.63641 15.852 4.99391 15.4897L11.6854 8.7089C12.0792 8.30977 12.0687 7.66399 11.673 7.2667C11.3158 6.90811 10.958 6.54027 10.6158 6.19829L7.77938 3.3621C7.39887 2.98163 7.38799 2.3685 7.76609 1.98563C8.24868 1.49693 8.74102 1.01636 9.21199 0.517899Z" fill="#809671"/>
<path d="M18.2083 1.01439C18.2084 0.456517 18.665 0.00695779 19.2228 0.0110587C19.7348 0.0148227 20.2469 0.0158332 20.7589 0.0140901C21.3153 0.012196 21.7695 0.461277 21.7694 1.01769L21.7687 9.71589C21.7687 9.98913 21.6568 10.2502 21.4599 10.4397C19.8735 11.9662 18.2472 13.6205 16.6866 15.2072C16.3004 15.5999 16.3039 16.2311 16.6992 16.6147C18.131 18.0038 19.6043 19.3555 21.0116 20.7697C21.3731 21.133 21.3906 21.7268 21.0281 22.089C20.5663 22.5506 20.1016 23.0094 19.634 23.4654C19.3431 23.7487 18.8797 23.7493 18.588 23.4667L11.6501 16.7447C11.2507 16.3578 11.2437 15.7194 11.6345 15.3238L15.1571 11.7578C16.0588 10.848 17.0393 9.88888 17.9336 8.95499C18.1099 8.77083 18.207 8.52524 18.2071 8.27028L18.2083 1.01439Z" fill="#809671"/>
<path d="M2.09109 0.5389C2.38981 0.2472 2.79702 0.23669 3.09843 0.525612C3.54705 0.955655 4.14205 1.5382 4.24023 1.63333L8.42387 5.69288C8.96364 6.21799 9.5085 6.76116 10.0567 7.2912C10.4624 7.68335 10.4764 8.33315 10.0801 8.73469L6.1582 12.7083L4.55792 14.3283C4.3126 14.5753 4.03817 14.8424 3.78601 15.1044C3.61504 15.282 3.52446 15.5205 3.52406 15.767L3.51223 23.0438C3.51138 23.5682 3.08721 23.9936 2.56279 23.9958L1.00208 23.9984C0.449176 23.9993 0.000478436 23.5513 0.000451123 22.9984L2.05118e-05 14.2816C7.38074e-06 14.0158 0.105824 13.7609 0.294095 13.5732L3.72835 10.1504C4.15727 9.72067 4.60288 9.28531 5.03691 8.84668C5.42585 8.45362 5.4043 7.81996 5.00616 7.43623C4.45511 6.90513 3.91218 6.36789 3.35894 5.83635C2.47289 4.99781 1.59458 4.15115 0.724125 3.29646C0.340491 2.91977 0.326666 2.30703 0.70214 1.92221C1.15085 1.46233 1.64198 0.977463 2.09109 0.5389Z" fill="#809671"/>
</svg>
