<svg width="95" height="24" viewBox="0 0 95 24" fill="none" xmlns="http://www.w3.org/2000/svg">
<path d="M5.09599 18.486V1.32599H8.398V18.486H5.09599ZM-5.20796e-06 4.10799V1.32599H13.52V4.10799H-5.20796e-06ZM17.319 18.824C16.5737 18.824 15.9064 18.6853 15.317 18.408C14.7277 18.1133 14.2597 17.68 13.913 17.108C13.5837 16.536 13.419 15.8253 13.419 14.976C13.419 14.2653 13.549 13.6587 13.809 13.156C14.0864 12.6533 14.4937 12.246 15.031 11.934C15.5684 11.6047 16.2357 11.336 17.033 11.128C17.8304 10.9027 18.7664 10.712 19.841 10.556C20.4304 10.4693 20.907 10.3827 21.271 10.296C21.6524 10.2093 21.9297 10.0793 22.103 9.90599C22.2764 9.71533 22.363 9.43799 22.363 9.07399C22.363 8.53666 22.1724 8.07733 21.791 7.69599C21.427 7.29733 20.829 7.09799 19.997 7.09799C19.4944 7.09799 19.009 7.18466 18.541 7.35799C18.0904 7.53133 17.7004 7.80866 17.371 8.18999C17.0417 8.55399 16.8164 9.03933 16.695 9.64599L13.757 8.73599C13.9477 8.04266 14.225 7.44466 14.589 6.94199C14.953 6.42199 15.4037 5.97999 15.941 5.61599C16.4784 5.25199 17.0937 4.98333 17.787 4.80999C18.4804 4.63666 19.243 4.54999 20.075 4.54999C21.3404 4.54999 22.3804 4.75799 23.195 5.17399C24.0097 5.57266 24.6164 6.20533 25.015 7.07199C25.4137 7.92133 25.613 9.02199 25.613 10.374V12.922C25.613 13.5113 25.6217 14.1267 25.639 14.768C25.6737 15.392 25.7084 16.0247 25.743 16.666C25.795 17.29 25.8557 17.8967 25.925 18.486H22.987C22.9177 18.0007 22.857 17.4807 22.805 16.926C22.753 16.3713 22.7097 15.808 22.675 15.236H22.259C22.0164 15.8947 21.6697 16.5013 21.219 17.056C20.7684 17.5933 20.2137 18.0267 19.555 18.356C18.9137 18.668 18.1684 18.824 17.319 18.824ZM18.619 16.406C18.9657 16.406 19.3124 16.3453 19.659 16.224C20.023 16.1027 20.3784 15.9207 20.725 15.678C21.0717 15.4353 21.3924 15.1407 21.687 14.794C21.9817 14.43 22.233 14.0053 22.441 13.52L22.389 11.206L23.013 11.31C22.7184 11.5527 22.3544 11.7433 21.921 11.882C21.4877 12.0207 21.0284 12.1247 20.543 12.194C20.075 12.2633 19.5984 12.35 19.113 12.454C18.645 12.5407 18.2204 12.662 17.839 12.818C17.4577 12.9567 17.1544 13.1647 16.929 13.442C16.7037 13.702 16.591 14.066 16.591 14.534C16.591 15.1233 16.7817 15.5827 17.163 15.912C17.5444 16.2413 18.0297 16.406 18.619 16.406ZM34.4061 18.824C33.4875 18.824 32.6555 18.7287 31.9101 18.538C31.1821 18.3647 30.5581 18.1133 30.0381 17.784C29.5181 17.4373 29.1021 17.03 28.7901 16.562C28.4781 16.0767 28.2875 15.5393 28.2181 14.95L30.7921 13.988C30.8268 14.4387 31.0001 14.846 31.3121 15.21C31.6241 15.5567 32.0575 15.834 32.6121 16.042C33.1668 16.25 33.8341 16.354 34.6141 16.354C35.4808 16.354 36.1481 16.224 36.6161 15.964C37.1015 15.6867 37.3441 15.2967 37.3441 14.794C37.3441 14.43 37.2141 14.144 36.9541 13.936C36.6941 13.7107 36.3128 13.5287 35.8101 13.39C35.3248 13.234 34.7355 13.0867 34.0421 12.948C33.4008 12.8093 32.7508 12.6533 32.0921 12.48C31.4508 12.2893 30.8528 12.0467 30.2981 11.752C29.7608 11.44 29.3188 11.0413 28.9721 10.556C28.6428 10.0533 28.4781 9.42066 28.4781 8.65799C28.4781 7.82599 28.6948 7.10666 29.1281 6.49999C29.5788 5.89333 30.2201 5.41666 31.0521 5.06999C31.9015 4.72333 32.9241 4.54999 34.1201 4.54999C35.2468 4.54999 36.2175 4.70599 37.0321 5.01799C37.8641 5.32999 38.5401 5.78066 39.0601 6.36999C39.5801 6.94199 39.9095 7.62666 40.0481 8.42399L37.3441 9.28199C37.2921 8.79666 37.1275 8.38933 36.8501 8.05999C36.5728 7.71332 36.2001 7.45332 35.7321 7.27999C35.2641 7.10666 34.7181 7.01999 34.0941 7.01999C33.2968 7.01999 32.6728 7.15866 32.2221 7.43599C31.7715 7.71333 31.5461 8.08599 31.5461 8.55399C31.5461 8.93533 31.6848 9.23866 31.9621 9.46399C32.2568 9.68933 32.6555 9.87133 33.1581 10.01C33.6781 10.1487 34.2675 10.2873 34.9261 10.426C35.6195 10.5647 36.2868 10.7293 36.9281 10.92C37.5868 11.0933 38.1761 11.3273 38.6961 11.622C39.2161 11.9167 39.6321 12.3067 39.9441 12.792C40.2561 13.26 40.4121 13.8667 40.4121 14.612C40.4121 15.5133 40.1695 16.2847 39.6841 16.926C39.1988 17.55 38.5055 18.0267 37.6041 18.356C36.7201 18.668 35.6541 18.824 34.4061 18.824ZM43.1691 18.486V-8.22544e-06H46.3931V10.374C46.9825 10.01 47.5458 9.61133 48.0831 9.17799C48.6205 8.72733 49.1145 8.25933 49.5651 7.77399C50.0158 7.28866 50.4145 6.80333 50.7611 6.31799C51.1078 5.81533 51.3938 5.33866 51.6191 4.88799H55.3891C55.1118 5.56399 54.7478 6.23133 54.2971 6.88999C53.8465 7.54866 53.3178 8.15533 52.7111 8.70999C52.1218 9.26466 51.4545 9.74999 50.7091 10.166C49.9638 10.5647 49.1665 10.842 48.3171 10.998V11.362C49.3918 11.206 50.2931 11.258 51.0211 11.518C51.7491 11.778 52.3645 12.168 52.8671 12.688C53.3698 13.208 53.7858 13.8147 54.1151 14.508C54.4618 15.184 54.7825 15.8773 55.0771 16.588L55.7531 18.486H52.1391L51.7231 17.238C51.3938 16.3713 51.0471 15.6087 50.6831 14.95C50.3365 14.274 49.8945 13.754 49.3571 13.39C48.8371 13.0087 48.1611 12.818 47.3291 12.818H46.3931V18.486H43.1691ZM63.092 23.14C62.3987 23.14 61.6967 23.0707 60.986 22.932C60.2754 22.7933 59.608 22.5767 58.984 22.282C58.3774 22.0047 57.866 21.6407 57.45 21.19L58.568 18.486C59.0707 19.058 59.7207 19.4913 60.518 19.786C61.3154 20.0807 62.1214 20.228 62.936 20.228C63.8894 20.228 64.678 20.0287 65.302 19.63C65.926 19.2487 66.4027 18.6507 66.732 17.836C67.0614 17.0213 67.2434 16.0073 67.278 14.794L67.46 12.324H66.914C66.7407 13.5027 66.4547 14.4647 66.056 15.21C65.6574 15.938 65.1547 16.4753 64.548 16.822C63.9587 17.1513 63.2654 17.316 62.468 17.316C61.48 17.316 60.648 17.0647 59.972 16.562C59.296 16.0593 58.7847 15.314 58.438 14.326C58.1087 13.338 57.944 12.116 57.944 10.66V4.88799H61.246V9.90599C61.246 11.5353 61.4454 12.7227 61.844 13.468C62.2427 14.196 62.8494 14.56 63.664 14.56C64.0974 14.56 64.496 14.4473 64.86 14.222C65.224 13.9793 65.5274 13.6413 65.77 13.208C66.03 12.7573 66.2294 12.2027 66.368 11.544C66.524 10.8853 66.6107 10.1313 66.628 9.28199V4.88799H69.93V14.924C69.93 16.016 69.8347 17.004 69.644 17.888C69.4707 18.7547 69.202 19.5087 68.838 20.15C68.474 20.8087 68.0147 21.3633 67.46 21.814C66.9227 22.2647 66.29 22.594 65.562 22.802C64.834 23.0273 64.0107 23.14 63.092 23.14ZM72.1608 18.486L78.0888 1.32599H82.8988L88.8268 18.486H85.2388L80.6888 3.95199H80.3248L75.7228 18.486H72.1608ZM75.3068 14.95V12.636H86.1228V14.95H75.3068ZM91.3902 18.486V1.32599H94.7182V18.486H91.3902Z" fill="#809671"/>
</svg>
